<svg width="30" height="30" viewBox="0 0 30 30" fill="none" xmlns="http://www.w3.org/2000/svg">
<path d="M1.46267 2.7373H3.63768C4.98768 2.7373 6.05017 3.8998 5.93767 5.2373L5.93756 17.4498C5.76256 19.4873 7.37505 21.2373 9.42505 21.2373H22.7376C24.5376 21.2373 26.1126 19.7624 26.2501 17.9748L26.2499 8.99979C26.3999 6.92478 24.8249 5.23727 22.7374 5.23727L6.23768 5.0748" stroke="#FDFDFD" stroke-width="2.5" stroke-miterlimit="16" stroke-linecap="square"/>
<path d="M20.3125 27.5C21.1754 27.5 21.875 26.8004 21.875 25.9375C21.875 25.0746 21.1754 24.375 20.3125 24.375C19.4496 24.375 18.75 25.0746 18.75 25.9375C18.75 26.8004 19.4496 27.5 20.3125 27.5Z" fill="#FDFDFD" stroke="#FDFDFD" stroke-width="2.5" stroke-miterlimit="10" stroke-linecap="round"/>
<path d="M10.3125 27.5C11.1754 27.5 11.875 26.8004 11.875 25.9375C11.875 25.0746 11.1754 24.375 10.3125 24.375C9.44956 24.375 8.75 25.0746 8.75 25.9375C8.75 26.8004 9.44956 27.5 10.3125 27.5Z" fill="#FDFDFD" stroke="#FDFDFD" stroke-width="2.5" stroke-miterlimit="10" stroke-linecap="round"/>
<path d="M11.25 10H26.25" stroke="#FDFDFD" stroke-width="2.5" stroke-miterlimit="10" stroke-linecap="square"/>
</svg>
